<svg width="43" height="44" viewBox="0 0 43 44" fill="none" xmlns="http://www.w3.org/2000/svg">
<path d="M39.8875 33.4209C39.9076 33.3573 39.9213 33.2903 39.9213 33.2197V9.92578C39.9213 9.85475 39.9076 9.78723 39.8871 9.72322C39.8841 9.71445 39.8824 9.70568 39.8789 9.69691C39.8515 9.62193 39.8112 9.55441 39.7607 9.49522C39.7572 9.49127 39.7568 9.48645 39.7534 9.4825C39.7512 9.48031 39.7487 9.47943 39.7465 9.47724C39.6925 9.41849 39.6287 9.37113 39.5571 9.33562C39.5516 9.33299 39.5473 9.32948 39.5417 9.32685C39.474 9.29572 39.4003 9.27818 39.3228 9.27292C39.315 9.27248 39.3078 9.27073 39.3 9.27073C39.2928 9.27029 39.2863 9.26854 39.279 9.26854H3.6271C3.61982 9.26854 3.61296 9.27029 3.60568 9.27073C3.59882 9.27117 3.59197 9.27248 3.58511 9.27292C3.5067 9.27818 3.43171 9.29616 3.36316 9.32773C3.35887 9.32948 3.35544 9.33255 3.35116 9.3343C3.27832 9.36982 3.21361 9.41805 3.1592 9.47768C3.15705 9.47987 3.15448 9.48031 3.15234 9.4825C3.14891 9.48601 3.14849 9.49083 3.14506 9.49478C3.0945 9.55397 3.05379 9.62193 3.02637 9.69691C3.02294 9.70568 3.02123 9.71445 3.01823 9.72365C2.99766 9.78767 2.98395 9.85519 2.98395 9.92622V33.2205C2.98395 33.2925 2.99809 33.3609 3.01908 33.4257C3.02208 33.4345 3.0238 33.4428 3.0268 33.4516C3.05465 33.527 3.09578 33.595 3.14677 33.6542C3.14977 33.6577 3.15063 33.6621 3.15363 33.6656C3.1562 33.6686 3.15963 33.6704 3.16263 33.6735C3.18362 33.6958 3.20676 33.7156 3.23075 33.7349C3.24147 33.7432 3.25089 33.7533 3.26203 33.7612C3.29031 33.7813 3.32074 33.7976 3.35201 33.8125C3.35973 33.816 3.36658 33.8217 3.3743 33.8247C3.45185 33.8585 3.53712 33.8778 3.62667 33.8778H39.2782C39.3677 33.8778 39.453 33.8589 39.5306 33.8247C39.5426 33.8195 39.5537 33.8116 39.5653 33.8054C39.5918 33.7919 39.6184 33.7778 39.6428 33.7607C39.6557 33.7515 39.6673 33.7397 39.6797 33.7296C39.7015 33.7116 39.723 33.6936 39.7418 33.673C39.7452 33.6695 39.7491 33.6669 39.7525 33.6634C39.756 33.6594 39.7568 33.6542 39.7602 33.6502C39.8104 33.5915 39.8506 33.524 39.8781 33.4494C39.8824 33.4398 39.8845 33.4306 39.8875 33.4209ZM4.26983 11.4174L15.0877 21.5287L4.26983 31.7206V11.4174ZM26.4421 21.0332C26.3976 21.063 26.3504 21.088 26.3131 21.1301C26.299 21.1459 26.2943 21.1665 26.2819 21.1832L21.4529 25.6966L5.28362 10.5835H37.6221L26.4421 21.0332ZM16.0407 22.4192L21.0192 27.0725C21.1422 27.1874 21.2973 27.2448 21.4529 27.2448C21.6084 27.2448 21.7635 27.1874 21.8861 27.0725L26.8029 22.477L37.6191 32.5624H5.27419L16.0407 22.4192ZM27.7563 21.5861L38.6359 11.4174V31.7311L27.7563 21.5861Z" fill="black"/>
</svg>
